<svg width="187" height="73" viewBox="0 0 187 73" fill="none" xmlns="http://www.w3.org/2000/svg">
<g clip-path="url(#clip0)">
<path d="M109.458 25.5305C107.107 25.5305 105.26 26.0338 103.411 27.0385C103.411 21.6755 103.411 16.8158 103.58 15.1404L92.3238 17.1507V18.1563L93.4996 18.3237C95.0101 18.6586 95.5165 19.4958 95.8492 21.508C96.1878 25.5305 96.018 46.9835 95.8492 50.5037C98.8731 51.1744 102.066 51.6777 105.259 51.6777C114.162 51.6777 119.538 46.1463 119.538 37.4306C119.538 30.5596 115.17 25.5305 109.458 25.5305ZM105.594 49.8329C104.922 49.8329 104.081 49.8329 103.578 49.6665C103.409 47.3203 103.243 37.4306 103.409 28.7158C104.417 28.38 105.089 28.2125 105.93 28.2125C109.628 28.2125 111.644 32.5699 111.644 37.9319C111.643 44.6383 109.123 49.8329 105.594 49.8329ZM49.9872 15.8102H20.4194V17.3181L22.0997 17.4855C24.2825 17.8204 25.1236 19.1609 25.4583 22.3453C25.9637 28.379 25.7949 39.2744 25.4583 44.468C25.1226 47.6533 24.2835 49.1622 22.0997 49.3277L20.4194 49.6645V51.005H39.403V49.6645L37.3871 49.3277C35.2033 49.1612 34.3632 47.6533 34.0275 44.468C33.8587 42.2883 33.6909 38.7682 33.6909 34.4118L37.7227 34.5792C40.2431 34.5792 41.418 36.5905 41.9224 39.4389H43.4349V27.5427H41.9224C41.417 30.3922 40.2431 32.4025 37.7227 32.4025L33.6918 32.5709C33.6918 26.872 33.8597 21.509 34.0285 18.3247H39.9075C44.4448 18.3247 46.7964 21.1732 48.4757 26.2022L50.156 25.6989L49.9872 15.8102Z" fill="black"/>
<path d="M59.5633 25.1956C67.9637 25.1956 72.1634 30.8944 72.1634 38.4361C72.1634 45.6429 67.4592 51.6785 59.0588 51.6785C50.6594 51.6785 46.4597 45.9787 46.4597 38.4361C46.4597 31.2293 51.1629 25.1956 59.5633 25.1956ZM59.0588 26.8719C55.3626 26.8719 54.3547 31.9 54.3547 38.4361C54.3547 44.8047 56.0349 50.0003 59.3955 50.0003C63.2566 50.0003 64.2665 44.9721 64.2665 38.4361C64.2665 32.0675 62.5882 26.8719 59.0588 26.8719ZM121.721 38.6045C121.721 31.7326 126.088 25.1956 134.656 25.1956C141.71 25.1956 145.072 30.3921 145.072 37.263H129.448C129.279 43.4642 132.303 47.99 138.352 47.99C141.04 47.99 142.383 47.3212 144.065 46.1471L144.735 46.9844C143.055 49.3305 139.36 51.6785 134.656 51.6785C127.096 51.6776 121.721 46.3146 121.721 38.6045ZM129.448 35.4202L137.344 35.2518C137.344 31.9 136.839 26.8719 133.984 26.8719C131.129 26.8719 129.615 31.5642 129.448 35.4202ZM165.066 26.537C163.05 25.6979 160.363 25.1956 157.339 25.1956C151.124 25.1956 147.258 28.8822 147.258 33.2405C147.258 37.5989 150.112 39.4417 154.148 40.7832C158.347 42.2902 159.524 43.4642 159.524 45.4754C159.524 47.4867 158.011 49.3295 155.323 49.3295C152.132 49.3295 149.779 47.4867 147.932 42.4576L146.755 42.7944L146.924 50.1687C148.94 51.0059 152.635 51.6776 155.828 51.6776C162.38 51.6776 166.581 48.3239 166.581 43.1293C166.581 39.6091 164.731 37.5989 160.364 35.9215C155.659 34.0787 153.98 32.9056 153.98 30.726C153.98 28.5473 155.495 27.0384 157.511 27.0384C160.533 27.0384 162.549 28.8822 164.063 33.408L165.238 33.0731L165.066 26.537ZM94.002 25.8663C91.1469 24.1919 86.1061 25.0281 83.4188 31.0628L83.5857 25.1965L72.3312 27.3752V28.3808L73.507 28.5483C75.0204 28.7167 75.6908 29.5539 75.8596 31.7335C76.1952 35.756 76.0274 42.7964 75.8596 46.3156C75.6908 48.3249 75.0204 49.3305 73.507 49.4989L72.3312 49.6673V51.0078H87.9542V49.6673L85.9383 49.4989C84.259 49.3305 83.7545 48.3249 83.5857 46.3156C83.25 43.1303 83.25 36.7617 83.4188 32.7392C84.258 31.5651 87.9542 30.5605 91.3138 32.7392L94.002 25.8663Z" fill="black"/>
</g>
<defs>
<clipPath id="clip0">
<rect width="187" height="72.3871" fill="white"/>
</clipPath>
</defs>
</svg>
