<?xml version="1.0" encoding="UTF-8"?>
<svg width="1717px" height="686px" viewBox="0 0 1717 686" version="1.1" xmlns="http://www.w3.org/2000/svg" xmlns:xlink="http://www.w3.org/1999/xlink">
    <!-- Generator: Sketch 52.3 (67297) - http://www.bohemiancoding.com/sketch -->
    <title>Artboard</title>
    <desc>Created with Sketch.</desc>
    <g id="Artboard" stroke="none" stroke-width="1" fill="none" fill-rule="evenodd">
        <g id="55th-grammy-awards-seeklogo.com" transform="translate(117.000000, 71.000000)">
            <g id="g2993" transform="translate(743.999720, 227.819800) scale(-1, 1) rotate(-180.000000) translate(-743.999720, -227.819800) translate(0.499720, 0.819800)">
                <g id="g3611" transform="translate(1448.394323, 28.094111)" fill="#B29447" fill-rule="nonzero">
                    <path d="M15.3693018,15.3693017 L11.3194907,15.3693017 L11.3194907,4.864384 L9.43675127,4.864384 L9.43675127,15.3693017 L5.37157096,15.3693017 L5.37157096,17.2520412 L15.3693018,17.2520412 L15.3693018,15.3693017 Z M31.0383049,4.864384 L29.1478808,4.864384 L29.1478808,15.3693017 L29.1017729,15.3693017 L24.8444763,4.864384 L23.6994633,4.864384 L19.5881751,15.3693017 L19.5190132,15.3693017 L19.5190132,4.864384 L17.6362738,4.864384 L17.6362738,17.2520412 L20.7331881,17.2520412 L24.2911814,8.50690852 L27.9567599,17.2520412 L31.0383049,17.2520412 L31.0383049,4.864384 Z" id="path3613"></path>
                </g>
                <g id="g3615" transform="translate(1096.122905, 0.547712)" fill="#B29447">
                    <polygon id="path3617" points="176.74697 7.68465088 352.318189 32.2140565 300.416057 128.141553 176.677808 110.912566 52.9549292 128.141553 1.06816647 32.2140565 176.577908 7.68465088 176.577908 7.66159692 176.677808 7.66928157 176.74697 7.66159692"></polygon>
                </g>
                <g id="g3619" transform="translate(1173.710228, 116.218602)" fill="#B29447">
                    <polygon id="path3621" points="192.116272 92.2158105 99.0782037 79.0520036 6.05550489 92.2158105 6.05550489 19.9339844 99.0013572 6.77786207 99.0013572 6.74712347 99.0782037 6.76249277 99.1627349 6.74712347 99.1627349 6.77786207 192.116272 19.9339844"></polygon>
                </g>
                <g id="g3623" transform="translate(1140.884500, 198.798375)" fill="#B29447">
                    <g id="g3625-Clipped" transform="translate(-0.000000, 0.000000)">
                        <g id="g3625" transform="translate(0.770039, 0.611934)">
                            <g id="g3631" transform="translate(79.493103, 20.040801)">
                                <path d="M122.954414,84.5311596 C91.8469473,108.146092 69.6536755,130.931082 50.4727869,159.856108 C46.5459303,146.023736 40.4904255,131.146252 32.3293262,116.122759 C24.3910819,101.529607 15.2156087,88.3427465 5.64053374,77.4151729 C23.0539526,77.3460111 39.5682674,76.1933134 56.4130221,73.6573786 C77.0539943,70.6065722 96.4500531,67.1792179 110.459172,59.9095382 C115.100701,57.5119271 119.18125,54.1153115 122.355011,50.0270772 L60.6242108,41.2512059 C58.6492555,44.6708755 55.4293868,46.9071089 51.7561236,46.9071089 C45.7697806,46.9071089 40.897712,40.9284506 40.897712,33.5588704 C40.897712,26.1969748 45.7697806,20.2106318 51.7561236,20.2106318 C56.0748974,20.2106318 59.7558452,23.3152308 61.5233149,27.7723283 L128.541155,37.285926 C129.140558,34.734622 129.501737,32.0680481 129.501737,29.3323124 C129.501737,20.3412709 126.151229,12.172487 120.633649,5.91718117 L146.300383,2.30539526 C150.603788,10.3742787 153.047507,19.5958597 153.047507,29.3323124 C153.047507,55.337171 142.873029,69.3923974 122.954414,84.5311596" id="path3633"></path>
                            </g>
                            <g id="g3635" transform="translate(6.193060, 74.976833)">
                                <path d="M107.585112,169.062319 C103.458455,171.306237 98.2636307,171.536777 92.1773872,169.723199 C72.0051787,163.75991 47.0146941,137.939483 28.5023701,103.942588 C10.0054154,69.9380076 1.91347807,34.9421075 7.8844518,14.7622143 C9.6672908,8.66060154 12.6796739,4.4263589 16.8140161,2.1901255 C20.932989,-0.0537925561 26.1201283,-0.284332082 32.2294258,1.50619157 C52.386265,7.4771653 77.3767497,33.2975922 95.881389,67.2944877 C120.464587,112.518658 125.820789,159.126066 107.585112,169.062319" id="path3637"></path>
                            </g>
                            <g id="g3639" transform="translate(68.621627, 6.527342)">
                                <path d="M122.954414,23.0539526 C122.954414,27.272826 95.9121276,30.7001802 62.5453735,30.7001802 C29.2016733,30.7001802 2.1593869,27.272826 2.1593869,23.0539526 L2.1593869,10.2513243 L2.16707155,10.2513243 C2.21317945,6.02476629 29.2170426,2.6127813 62.5453735,2.6127813 C95.8967583,2.6127813 122.908306,6.02476629 122.954414,10.2513243 L122.969783,14.1704962 L122.969783,23.0539526 L122.954414,23.0539526 Z" id="path3641"></path>
                            </g>
                        </g>
                    </g>
                </g>
                <g id="g3643" transform="translate(576.000000, 9.000000)" fill="#231F20" fill-rule="nonzero">
                    <path d="M15.3693018,23.0539526 L7.67696622,3.0969143 L4.34182774,3.0969143 L26.5504688,61.0391819 L29.9701384,61.0391819 L52.1787794,3.0969143 L48.843641,3.0969143 L41.1589901,23.0539526 L15.3693018,23.0539526 Z M28.218038,56.7818853 L16.529684,26.1431823 L39.9909232,26.1431823 L28.218038,56.7818853 Z" id="path3645"></path>
                </g>
                <g id="g3647" transform="translate(633.000000, 12.000000)" fill="#231F20">
                    <polygon id="path3649" points="53.7925561 0 50.5342642 0 35.679834 52.5092194 20.8177192 0 17.5594272 0 1.02974322 57.9422676 4.28803519 57.9422676 19.1424653 5.50989468 34.0045801 57.9422676 37.3474033 57.9422676 52.209518 5.50989468 67.0716328 57.9422676 70.237709 57.9422676"></polygon>
                </g>
                <g id="g3651" transform="translate(705.000000, 9.000000)" fill="#231F20" fill-rule="nonzero">
                    <path d="M15.3693018,23.0539526 L7.68465088,3.0969143 L4.3495124,3.0969143 L26.5581534,61.0391819 L29.9778231,61.0391819 L52.1864641,3.0969143 L48.8513256,3.0969143 L41.1666747,23.0539526 L15.3693018,23.0539526 Z M28.2257227,56.7818853 L16.5373687,26.1431823 L39.9986078,26.1431823 L28.2257227,56.7818853 Z" id="path3653"></path>
                </g>
                <g id="g3655" transform="translate(0.884500, 7.798375)" fill="#231F20">
                    <g id="g3657-Clipped" transform="translate(-0.000000, 0.000000)">
                        <g id="g3657" transform="translate(0.429590, 0.586834)">
                            <g id="g3663" transform="translate(767.000000, 4.000000)" fill-rule="nonzero">
                                <path d="M46.1079053,0 L42.9341444,0 C42.1810487,1.58303808 41.7660775,3.59641661 41.7660775,6.26299046 L41.7660775,14.6930525 C41.7660775,23.8762103 35.0881159,25.8819041 29.4936901,25.8819041 L8.03814482,25.8819041 L8.03814482,0 L4.94891516,0 L4.94891516,57.9422676 L29.3246277,57.9422676 C40.0139771,57.9422676 46.6074076,51.7638083 46.6074076,41.9120859 C46.6074076,34.9882154 42.8572979,29.7242296 36.9247475,27.3804111 C42.019671,25.466933 44.8553072,21.1174206 44.8553072,14.6930525 L44.8553072,7.01608625 C44.8553072,4.8490147 45.4393406,1.67525389 46.1079053,0 M43.4336467,41.9120859 C43.4336467,50.0962391 38.3387232,54.8530379 29.3246277,54.8530379 L8.03814482,54.8530379 L8.03814482,28.8942873 L29.6627524,28.8942873 C36.5097763,28.8942873 43.4336467,32.9748369 43.4336467,41.9120859" id="path3665"></path>
                            </g>
                            <g id="g3667" transform="translate(830.000000, 4.000000)" fill-rule="nonzero">
                                <path d="M23.0539526,0 L2.18244085,0 L2.18244085,57.9422676 L23.0539526,57.9422676 C39.2531967,57.9422676 48.8513256,47.1683871 48.8513256,29.055665 C48.8513256,11.1888517 38.9996032,0 23.0539526,0 M23.0539526,54.8530379 L5.2716705,54.8530379 L5.2716705,3.08922965 L23.0539526,3.08922965 C37.2475028,3.08922965 45.762096,12.8564209 45.762096,29.055665 C45.762096,45.5008178 37.5010963,54.8530379 23.0539526,54.8530379" id="path3669"></path>
                            </g>
                            <g id="g3671" transform="translate(887.000000, 0.000000)">
                                <path d="M46.1079052,46.1079053 L43.0186756,46.1079053 C43.0186756,54.6224984 36.5943075,60.2169243 26.6580539,60.2169243 C16.7218003,60.2169243 10.1283699,55.2065319 10.1283699,47.7754745 C10.1283699,41.4279529 14.9696999,38.0082832 27.3266185,35.503087 C40.3521017,32.8365132 47.8676903,29.3323124 47.8676903,19.3115276 C47.8676903,9.20621175 39.4299436,2.69731246 26.4044604,2.69731246 C16.3068292,2.69731246 5.45610212,8.62986293 5.45610212,21.394068 L8.54533177,21.394068 C8.54533177,10.7047187 17.5594272,5.87107327 26.4044604,5.87107327 C37.7623744,5.87107327 44.770776,10.9583121 44.770776,19.3115276 C44.770776,26.4966762 40.2675706,29.7472835 26.742585,32.5060732 C16.4758915,34.5040824 7.0391402,37.8469056 7.0391402,47.7754745 C7.0391402,57.0431634 14.8851687,63.2216227 26.6580539,63.2216227 C40.0985083,63.2216227 46.1079052,54.6224984 46.1079052,46.1079053" id="path3673"></path>
                            </g>
                            <g id="g3675" transform="translate(0.305937, 100.235739)">
                                <path d="M72.4662578,54.0230957 L137.78579,54.0230957 L137.78579,48.5208856 L119.665383,48.5208856 L119.665383,3.9883338 L116.176552,3.9883338 L101.383599,15.6305799 C89.2495353,4.8182761 76.4545916,0 60.1708164,0 C25.7589497,0 0,25.0903851 0,59.0027494 C0,92.0698021 27.2574567,117.836437 62.4915809,117.836437 C80.1048007,117.836437 87.5896507,115.338925 103.043484,104.203866 L111.358276,112.849098 L115.507987,112.849098 L115.507987,72.7966977 L110.858774,72.7966977 C109.022142,95.0591313 88.5886553,113.509978 65.4885948,113.509978 C38.5615781,113.509978 21.6015536,92.4002421 21.6015536,58.8336871 C21.6015536,26.4275144 39.2224581,4.31877379 64.9814078,4.31877379 C77.4459115,4.31877379 90.0794776,10.3128015 95.066816,18.7812867 C97.7257052,22.9386829 99.2165274,30.0777235 99.2165274,38.2234535 C99.2165274,42.2194719 99.0551498,44.0407342 98.3942698,48.5208856 L72.4662578,48.5208856 L72.4662578,54.0230957 Z" id="path3677"></path>
                            </g>
                            <g id="g3679" transform="translate(143.000000, 102.000000)" fill-rule="nonzero">
                                <path d="M0,7.68465088 L21.7706159,7.68465088 L21.7706159,108.061561 L0,108.061561 L0,113.210277 L90.7480422,113.210277 C109.690707,113.210277 119.995823,109.721445 125.982166,101.245275 C129.140558,96.7651238 130.96182,91.2782831 130.96182,85.4533177 C130.96182,69.5076672 119.496321,59.8634303 98.3942698,57.5426658 C108.199884,56.0441588 115.338925,52.716705 119.834446,47.3989266 C123.984157,42.9187751 126.143544,36.0948052 126.981171,26.127813 C128.141553,12.0111093 130.63138,7.68465087 136.948163,7.68465087 C142.934506,7.68465087 145.093893,12.172487 145.093893,24.806053 L145.093893,25.6283107 L150.081232,25.6283107 L150.081232,24.2988661 C150.081232,7.35421089 144.594391,0.868365549 130.470003,0.868365549 C119.334943,0.868365549 110.021147,5.85570397 107.031817,14.0014339 C105.53331,18.1511454 104.372928,24.2988661 103.542986,32.2832183 C101.875417,47.9061136 95.2281936,54.8837765 82.1028099,54.8837765 L44.5402365,54.8837765 L44.5402365,7.85371319 L66.8026701,7.85371319 L66.979417,2.52825014 L0,2.52825014 L0,7.68465088 Z M44.5402365,60.7087419 L79.2671738,60.7087419 C84.1008192,60.5319949 91.0784822,61.5309996 94.5673137,62.8604442 C102.713044,65.6883957 108.52264,74.3259433 108.52264,83.8011178 C108.52264,97.0955638 98.0638298,107.892498 85.2612015,107.892498 L44.5402365,107.892498 L44.5402365,60.7087419 Z" id="path3681"></path>
                            </g>
                            <g id="g3683" transform="translate(299.000000, 101.000000)" fill-rule="nonzero">
                                <path d="M0,7.68465087 L0.660879975,7.68465087 C11.7959391,7.53095786 16.1147129,10.3512247 22.7696205,22.3239108 L76.6159692,118.382047 L134.450652,7.68465087 L150.081232,7.68465087 L150.081232,2.70499711 L91.4089222,2.70499711 L91.4089222,7.68465087 L110.021147,7.68465087 L93.2378691,41.5970152 L39.5528981,41.5970152 L27.9183366,21.1558439 L27.756959,20.4872792 L26.4198297,17.3365724 C26.0893897,16.6756924 25.9280121,15.9994431 25.9280121,15.1695008 C25.9280121,10.1898471 29.4168435,7.53095786 36.0640666,7.53095786 C36.5635689,7.53095786 37.2321335,7.53095786 37.7239511,7.68465087 L47.037748,7.68465087 L47.037748,2.70499711 L0,2.70499711 L0,7.68465087 Z M90.4099175,46.9071089 L67.3021724,92.11591 L42.5422272,46.9071089 L90.4099175,46.9071089 Z" id="path3685"></path>
                            </g>
                            <g id="g3687" transform="translate(455.000000, 102.000000)">
                                <path d="M0,7.68465087 L6.47816069,7.68465087 C18.6045398,7.68465087 22.2701182,12.0111093 22.2701182,25.9664353 L22.2701182,107.731121 L1.3294446,107.731121 L1.3294446,113.048899 L45.3701788,113.210277 L91.9007398,27.1268176 L136.279599,113.210277 L178.998573,113.210277 L178.998573,108.061561 L158.057899,108.061561 L158.057899,7.85371319 L178.829511,7.85371319 L178.829511,2.52825014 L114.678045,2.52825014 L114.678045,7.68465088 L135.618719,7.68465088 L135.618719,100.253955 L84.9230768,0.53024091 L81.7646853,0.53024091 L28.241092,98.2559461 L28.241092,25.9664353 C28.241092,11.1657977 31.5685458,7.68465087 45.8696811,7.68465087 L50.3575172,7.68465087 L50.3575172,2.52825014 L0,2.52825014 L0,7.68465087 Z" id="path3689"></path>
                            </g>
                            <g id="g3691" transform="translate(639.000000, 102.000000)">
                                <path d="M0,7.68465087 L6.47816069,7.68465087 C18.6122244,7.68465087 22.2701182,12.0111093 22.2701182,25.9664353 L22.2701182,107.731121 L1.33712925,107.731121 L1.33712925,113.048899 L45.3778634,113.210277 L91.9084245,27.1268176 L136.287283,113.210277 L178.998573,113.210277 L178.998573,108.061561 L158.065584,108.061561 L158.065584,7.85371319 L178.837195,7.85371319 L178.837195,2.52825014 L114.678045,2.52825014 L114.678045,7.68465088 L135.618719,7.68465088 L135.618719,100.253955 L84.9307615,0.53024091 L81.77237,0.53024091 L28.2641459,98.2559461 L28.2641459,25.9664353 C28.2641459,11.1657977 31.5839151,7.68465087 45.8696811,7.68465087 L50.3652018,7.68465087 L50.3652018,2.52825014 L0,2.52825014 L0,7.68465087 Z" id="path3693"></path>
                            </g>
                            <g id="g3695" transform="translate(826.000000, 99.000000)">
                                <path d="M0,115.269763 L66.648977,115.269763 L66.648977,110.121047 L42.7112896,110.121047 L83.6013169,61.9229168 L108.530324,94.1677118 C111.857778,98.3251079 113.686725,102.305757 113.686725,104.634206 C113.686725,108.783918 110.528334,109.951985 99.8850921,109.951985 L94.2445583,110.121047 L94.2445583,115.269763 L145.255271,115.269763 L145.255271,110.121047 L143.603071,110.121047 C131.469007,110.121047 128.141553,109.129727 123.330962,103.973326 C121.502015,101.975317 119.004503,99.1550502 116.00749,95.4971564 C115.34661,94.6595295 114.847107,93.9909649 114.678045,93.8295872 L85.9297661,55.7751961 L85.9297661,9.91319963 L111.857778,9.91319963 L111.857778,4.58773657 L37.4011958,4.58773657 L37.4011958,9.74413731 L63.6596478,9.74413731 L63.6596478,54.2766891 L15.2924552,110.121047 L0,110.121047 L0,115.269763 Z" id="path3697"></path>
                            </g>
                            <g id="g3699" transform="translate(974.000000, 195.000000)" fill-rule="nonzero">
                                <path d="M15.3693018,0 C9.62886755,0 4.98733842,4.64152913 4.98733842,10.3819633 C4.98733842,16.0916589 9.62886755,20.7408727 15.3693018,20.7408727 C21.109736,20.7408727 25.7589497,16.0916589 25.7589497,10.3819633 C25.7589497,4.64152913 21.109736,0 15.3693018,0 Z M15.3693018,18.81971 C10.7815652,18.81971 7.0545095,15.0311771 7.0545095,10.3819633 C7.0545095,5.70201095 10.7815652,1.91347807 15.3693018,1.91347807 C19.964723,1.91347807 23.6917786,5.70201095 23.6917786,10.3819633 C23.6917786,15.0311771 19.964723,18.81971 15.3693018,18.81971 Z M20.6256029,4.90280726 L18.15883,4.90280726 L16.0916589,8.89114106 L13.3021307,8.89114106 L13.3021307,4.93354586 L11.1581131,4.93354586 L11.1581131,16.3529371 L16.6372691,16.3529371 C19.0502495,16.3529371 20.5718104,14.8851687 20.5718104,12.6258814 C20.5718104,10.9890508 19.6265983,9.6672908 18.181884,9.14473454 L20.6256029,4.90280726 Z M16.6680077,10.873781 C17.5517426,10.873781 18.4508468,11.33486 18.4508468,12.6258814 C18.4508468,13.9169027 17.7515435,14.3702971 16.6680077,14.3702971 L13.3021307,14.3702971 L13.3021307,10.873781 L16.6680077,10.873781 Z" id="path3701"></path>
                            </g>
                        </g>
                    </g>
                </g>
            </g>
        </g>
    </g>
</svg>