<?xml version="1.0" encoding="UTF-8"?>
<svg width="500px" height="93px" viewBox="0 0 500 93" version="1.1" xmlns="http://www.w3.org/2000/svg" xmlns:xlink="http://www.w3.org/1999/xlink">
    <!-- Generator: Sketch 52.3 (67297) - http://www.bohemiancoding.com/sketch -->
    <title>huffpost</title>
    <desc>Created with Sketch.</desc>
    <g id="huffpost" stroke="none" stroke-width="1" fill="none" fill-rule="evenodd">
        <polyline id="Fill-15" fill="#0A0B09" points="82.7219435 72 99.1780135 72 108 22 91.5439301 22 88.2902394 39.9055397 74.0243658 39.9055397 77.2780565 22 60.8219865 22 52 72 68.4550666 72 71.771965 53.2887458 86.0378386 53.2887458 82.7219435 72"></polyline>
        <path d="M117.591601,22.0614565 L112.620625,49.8180016 C112.186287,51.9818662 112,54.0832831 112,56.0617869 C112,70.7746788 124.922546,73 132.687829,73 C148.965536,73 155.98567,67.6215623 158.532922,53.0940312 L164,22 L147.66053,22 L143.00136,48.0873064 C141.510067,56.2471478 140.454108,60.5124293 134.365409,60.5124293 C130.389624,60.5124293 128.462997,58.4110124 128.462997,54.0832831 C128.462997,52.4140444 128.712044,50.3740841 129.209142,47.8394978 L133.930075,22 L117.591601,22 L117.591601,22.0614565" id="Fill-16" fill="#0A0B09"></path>
        <path d="M276.756604,46.8149471 L271.982013,46.8149471 L274.180944,35.0568951 L278.641258,35.0568951 C282.284654,35.0568951 284.231761,36.8518585 284.231761,40.1312139 C284.231761,44.2777877 281.405283,46.8149471 276.756604,46.8149471 Z M251,72 L267.521698,72 L269.846541,59.1286539 L277.635975,59.1286539 C292.022202,59.1286539 300,51.4556568 300,37.4700244 C300,27.6309658 293.089937,22 280.965094,22 L259.858177,22 L251,72 Z" id="Fill-17" fill="#0A0B09"></path>
        <path d="M326.604808,59.844623 C322.380486,59.844623 319.896293,56.7601645 319.896293,51.5985413 C319.896293,49.6475405 320.082558,47.9478585 320.455087,45.9968578 C321.697183,39.324294 323.809843,33.2189636 330.456601,33.2189636 C334.680923,33.2189636 337.165116,36.3024128 337.165116,41.4640361 C337.165116,43.4160462 336.978851,45.1157281 336.606322,47.0667289 C335.364226,53.675706 333.251567,59.844623 326.604808,59.844623 Z M331.387924,20 C313.622064,20 303,31.6444364 303,51.2210584 C303,64.8175049 311.447649,73 325.610733,73 C343.377589,73 353.999653,61.3555636 353.999653,41.7789416 C354.062405,28.1199177 345.61376,20 331.387924,20 Z" id="Fill-18" fill="#0A0B09"></path>
        <polyline id="Fill-19" fill="#0A0B09" points="411.683205 72 427.959067 72 434.395187 35.3822127 446.648226 35.3822127 449 22 407.351774 22 405 35.3822127 417.995287 35.3822127 411.683205 72"></polyline>
        <path d="M383.826764,40.5382943 C378.70359,38.9311712 376.604236,38.2510439 376.604236,35.8398635 C376.604236,34.2317489 377.654408,32.3152968 380.740586,32.3152968 C383.024041,32.3152968 384.938303,33.6130908 385.678669,35.5305344 L400,31.6351694 C398.333187,24.586036 392.283565,21 381.851135,21 C362.221538,21 360.678449,34.1702797 360.678449,38.1885832 C360.678449,46.351103 364.99989,51.3588629 374.382149,53.9554424 C376.851685,54.6365612 379.691404,55.3781578 379.691404,58.0986673 C379.691404,60.2629793 378.085958,61.623234 375.308596,61.623234 C372.777692,61.623234 370.061697,60.1390494 369.13525,57.5424698 L355,61.3753742 C356.543089,68.7953059 363.518168,73 374.444506,73 C382.777582,73 396.727741,70.7742188 396.727741,55.6874869 C396.790098,48.1436252 392.530024,43.1973346 383.826764,40.5382943" id="Fill-20" fill="#0A0B09"></path>
        <polyline id="Fill-21" fill="#29AF8A" points="43.1861108 72 52 22 25 22 25 72 43.1861108 72"></polyline>
        <polyline id="Fill-22" fill="#29AF8A" points="455.751189 22 447 72 474 72 474 22 455.751189 22"></polyline>
        <polyline id="Fill-23" fill="#0A0B09" points="173.701644 22 165 72 181.229743 72 183.822228 57.2721716 197.459487 57.2721716 199.680909 44.7104046 186.04365 44.7104046 187.586277 35.4279931 206.65489 35.4279931 209 22 173.701644 22"></polyline>
        <polyline id="Fill-24" fill="#0A0B09" points="216.70184 22 208 72 224.230108 72 226.760311 57.2721716 240.460217 57.2721716 242.681689 44.7104046 229.044124 44.7104046 230.586785 35.4279931 249.654837 35.4279931 252 22 216.70184 22"></polyline>
    </g>
</svg>