<svg width="1236" height="412" viewBox="0 0 1236 412" version="1.1" xmlns="http://www.w3.org/2000/svg" xmlns:xlink="http://www.w3.org/1999/xlink">
<title>Humm.ly Logo@1x</title>
<desc>Created using Figma</desc>
<g id="Canvas" transform="matrix(4 0 0 4 1776 -28)">
<g id="Humm.ly Logo@1x">
<g id="Ellipse">
<use xlink:href="#path0_fill" transform="translate(-444 7)" fill="#FFFFFF"/>
</g>
<g id="&#208;&#161;&#208;&#187;&#208;&#190;&#208;&#185; 2">
<g id="&#208;&#161;&#208;&#187;&#208;&#190;&#208;&#185; 1">
<g id="Group">
<g id="Vector">
<use xlink:href="#path1_fill" transform="matrix(0.999867 -0.0162937 0.0162937 0.999867 -423 32.9799)" fill="url(#paint1_linear)"/>
</g>
<g id="Vector">
<use xlink:href="#path2_fill" transform="matrix(0.999867 -0.0162937 0.0162937 0.999867 -417.868 41.7098)" fill="url(#paint2_linear)"/>
</g>
</g>
<g id="Group 2">
<g id="Vector">
<use xlink:href="#path3_fill" transform="translate(-147.161 40.42)" fill="#FFFFFF"/>
<mask id="mask0_outline_out">
<rect id="mask0_outline_inv" fill="white" x="-1" y="-1" width="6" height="7" transform="translate(-147.161 40.42)"/>
<use xlink:href="#path3_fill" fill="black" transform="translate(-147.161 40.42)"/>
</mask>
<g mask="url(#mask0_outline_out)">
<use xlink:href="#path4_stroke_2x" transform="translate(-147.161 40.42)" fill="#FFFFFF"/>
</g>
</g>
<g id="Vector">
<use xlink:href="#path5_fill" transform="translate(-141.682 40.42)" fill="#FFFFFF"/>
<mask id="mask1_outline_out">
<rect id="mask1_outline_inv" fill="white" x="-1" y="-1" width="8" height="7" transform="translate(-141.682 40.42)"/>
<use xlink:href="#path5_fill" fill="black" transform="translate(-141.682 40.42)"/>
</mask>
<g mask="url(#mask1_outline_out)">
<use xlink:href="#path6_stroke_2x" transform="translate(-141.682 40.42)" fill="#FFFFFF"/>
</g>
</g>
<g id="Vector">
<use xlink:href="#path7_fill" transform="translate(-318.352 40)" fill="#FFFFFF"/>
<mask id="mask2_outline_out">
<rect id="mask2_outline_inv" fill="white" x="-1" y="-1" width="24" height="31" transform="translate(-318.352 40)"/>
<use xlink:href="#path7_fill" fill="black" transform="translate(-318.352 40)"/>
</mask>
<g mask="url(#mask2_outline_out)">
<use xlink:href="#path8_stroke_2x" transform="translate(-318.352 40)" fill="#FFFFFF"/>
</g>
</g>
<g id="Vector">
<use xlink:href="#path9_fill" transform="translate(-288.102 48.06)" fill="#FFFFFF"/>
<mask id="mask3_outline_out">
<rect id="mask3_outline_inv" fill="white" x="-1" y="-1" width="19" height="23" transform="translate(-288.102 48.06)"/>
<use xlink:href="#path9_fill" fill="black" transform="translate(-288.102 48.06)"/>
</mask>
<g mask="url(#mask3_outline_out)">
<use xlink:href="#path10_stroke_2x" transform="translate(-288.102 48.06)" fill="#FFFFFF"/>
</g>
</g>
<g id="Vector">
<use xlink:href="#path11_fill" transform="translate(-263.692 47.7159)" fill="#FFFFFF"/>
<mask id="mask4_outline_out">
<rect id="mask4_outline_inv" fill="white" x="-1" y="-1" width="30" height="23" transform="translate(-263.692 47.7159)"/>
<use xlink:href="#path11_fill" fill="black" transform="translate(-263.692 47.7159)"/>
</mask>
<g mask="url(#mask4_outline_out)">
<use xlink:href="#path12_stroke_2x" transform="translate(-263.692 47.7159)" fill="#FFFFFF"/>
</g>
</g>
<g id="Vector">
<use xlink:href="#path13_fill" transform="translate(-228.232 47.7159)" fill="#FFFFFF"/>
<mask id="mask5_outline_out">
<rect id="mask5_outline_inv" fill="white" x="-1" y="-1" width="30" height="23" transform="translate(-228.232 47.7159)"/>
<use xlink:href="#path13_fill" fill="black" transform="translate(-228.232 47.7159)"/>
</mask>
<g mask="url(#mask5_outline_out)">
<use xlink:href="#path14_stroke_2x" transform="translate(-228.232 47.7159)" fill="#FFFFFF"/>
</g>
</g>
<g id="Vector">
<use xlink:href="#path15_fill" transform="translate(-192.212 65.3)" fill="#FFFFFF"/>
<mask id="mask6_outline_out">
<rect id="mask6_outline_inv" fill="white" x="-1" y="-1" width="6" height="6" transform="translate(-192.212 65.3)"/>
<use xlink:href="#path15_fill" fill="black" transform="translate(-192.212 65.3)"/>
</mask>
<g mask="url(#mask6_outline_out)">
<use xlink:href="#path16_stroke_2x" transform="translate(-192.212 65.3)" fill="#FFFFFF"/>
</g>
</g>
<g id="Vector">
<use xlink:href="#path17_fill" transform="translate(-179.722 40)" fill="#FFFFFF"/>
<mask id="mask7_outline_out">
<rect id="mask7_outline_inv" fill="white" x="-1" y="-1" width="5" height="31" transform="translate(-179.722 40)"/>
<use xlink:href="#path17_fill" fill="black" transform="translate(-179.722 40)"/>
</mask>
<g mask="url(#mask7_outline_out)">
<use xlink:href="#path18_stroke_2x" transform="translate(-179.722 40)" fill="#FFFFFF"/>
</g>
</g>
<g id="Vector">
<use xlink:href="#path19_fill" transform="translate(-171.242 48.06)" fill="#FFFFFF"/>
<mask id="mask8_outline_out">
<rect id="mask8_outline_inv" fill="white" x="-1" y="-1" width="21" height="30" transform="translate(-171.242 48.06)"/>
<use xlink:href="#path19_fill" fill="black" transform="translate(-171.242 48.06)"/>
</mask>
<g mask="url(#mask8_outline_out)">
<use xlink:href="#path20_stroke_2x" transform="translate(-171.242 48.06)" fill="#FFFFFF"/>
</g>
</g>
</g>
</g>
</g>
</g>
</g>
<defs>
<linearGradient id="paint1_linear" x1="0" y1="0" x2="1" y2="0" gradientUnits="userSpaceOnUse" gradientTransform="matrix(3.68252e-15 51.5486 -60.14 3.15644e-15 60.14 -3.15644e-15)">
<stop offset="0" stop-color="#EA86CE"/>
<stop offset="1" stop-color="#74B7FA"/>
</linearGradient>
<linearGradient id="paint2_linear" x1="0" y1="0" x2="1" y2="0" gradientUnits="userSpaceOnUse" gradientTransform="matrix(2.62493e-15 32.607 -42.8684 1.9966e-15 42.8684 -1.9966e-15)">
<stop offset="0" stop-color="#EA86CE"/>
<stop offset="1" stop-color="#74B7FA"/>
</linearGradient>
<path id="path0_fill" d="M 103 51.5C 103 79.9427 79.9427 103 51.5 103C 23.0573 103 0 79.9427 0 51.5C 0 23.0573 23.0573 0 51.5 0C 79.9427 0 103 23.0573 103 51.5Z"/>
<path id="path1_fill" d="M 19.4676 42.4505C 19.8991 42.8688 20.3037 43.3146 20.6789 43.7853C 22.3693 46.0258 24.6813 47.7039 27.3188 48.6048C 29.2387 49.24 31.328 49.0856 33.1365 48.1748C 35.7072 46.8582 38.1367 45.2762 40.3866 43.4538C 43.1321 41.3088 45.707 38.9485 48.0875 36.3947C 50.0798 34.335 51.8932 32.1051 53.5073 29.7297C 55.4967 26.8003 57.15 23.8441 57.6363 20.431C 57.8891 18.804 57.5895 17.1382 56.7865 15.7061C 55.9834 14.274 54.7244 13.1605 53.2156 12.5477C 52.8707 12.4044 52.4021 12.1804 51.8717 12.0102C 51.5887 13.9989 51.3323 16.4893 51.0406 18.3706C 50.5189 21.8912 50.2537 25.4566 49.228 28.8787C 48.7252 30.8609 47.5117 32.5824 45.8241 33.7072C 44.2646 34.6685 42.4219 35.0457 40.6164 34.7732C 39.8116 34.6456 39.0209 34.4385 38.2558 34.1551C 36.8127 33.6978 35.5706 32.7482 34.7405 31.4678C 33.9104 30.1874 33.5436 28.6553 33.7024 27.1318C 33.7024 26.8899 33.8173 26.5943 33.8173 26.5406C 35.2143 23.011 37.7783 21.7747 41.1381 22.1779C 42.2989 22.299 43.4054 22.7371 44.3397 23.4455C 45.274 24.1538 46.0009 25.1059 46.443 26.2001C 45.4881 27.3289 45.2405 27.3737 44.3918 26.6839C 43.7442 26.0795 43.0623 25.5142 42.3494 24.9908C 41.5743 24.4845 40.6623 24.2365 39.7412 24.2814C 38.8201 24.3264 37.9359 24.6621 37.2125 25.2416C 36.8327 25.4857 36.5169 25.8194 36.2921 26.2141C 36.0673 26.6088 35.9402 27.0527 35.9216 27.5081C 35.8606 27.9993 35.9023 28.498 36.044 28.9718C 36.1857 29.4456 36.4241 29.8839 36.7439 30.2582C 37.8136 31.3737 39.239 32.0688 40.7667 32.2201C 42.0249 32.5304 43.3527 32.3346 44.4713 31.6737C 45.1319 31.2661 45.7063 30.7302 46.1615 30.0968C 46.6168 29.4634 46.9438 28.7449 47.1238 27.9828C 47.6101 25.7881 47.9195 23.5574 48.2378 21.3268C 48.7594 17.7435 49.1927 14.205 49.6436 10.6396C 49.9 8.63292 50.121 6.61731 50.3598 4.61065C 50.4216 4.06419 50.5454 3.19524 50.6604 2.41587C 50.1659 2.34032 49.6646 2.32228 49.1662 2.36212C 47.221 2.47858 45.8683 2.60399 43.932 2.85482C 42.0555 3.15591 40.2232 3.69152 38.4768 4.4494C 35.8244 5.50648 33.3222 6.76064 30.378 6.75168C 28.4965 6.69605 26.6449 6.26053 24.9316 5.47065C 23.2518 4.75398 21.6426 3.87607 19.9539 3.16836C 18.319 2.47223 16.532 2.22504 14.7728 2.4517C 12.125 2.66838 9.56521 3.51554 7.30172 4.92419C 6.09369 5.77044 5.06051 6.8477 4.26025 8.09543C 3.10494 9.9776 2.49242 12.1497 2.49195 14.3662C 2.39788 17.6013 3.17744 20.801 4.74653 23.6201C 5.07366 24.2383 5.35659 24.8922 5.63068 25.4924C 5.01691 25.7991 4.3779 26.0509 3.72092 26.2449C 2.57743 24.2741 1.6127 22.2022 0.838592 20.0548C 0.0416094 17.7323 -0.1919 15.2496 0.157798 12.8164C 0.40327 10.0654 1.50554 7.46472 3.30537 5.39002C 6.09044 2.28149 9.54746 0.794416 13.6145 0.140461C 16.7741 -0.290457 19.988 0.275723 22.8185 1.76191C 23.9856 2.30837 25.1173 2.94441 26.3109 3.44607C 28.5998 4.45828 31.1794 4.56692 33.5432 3.75065C 34.5512 3.41024 35.5503 3.05191 36.514 2.62191C 40.1438 1.04032 44.0568 0.235177 48.0079 0.256919C 48.7241 0.256919 49.4314 0.194211 50.1918 0.131503C 50.8879 0.0521011 51.5899 0.216486 52.1811 0.597334C 53.0122 1.17962 53.1183 1.87837 52.9326 3.33857C 52.6674 5.38106 52.5701 7.57584 52.4021 9.51979C 53.6488 10.129 54.6037 10.559 55.5497 11.1412C 56.6782 11.8338 57.6508 12.7585 58.4047 13.8556C 59.1585 14.9527 59.6769 16.1979 59.9262 17.5106C 60.6336 20.5743 59.4488 23.2618 58.3701 25.9493C 56.9967 29.057 55.1399 31.9212 52.8707 34.4328C 50.3643 37.3635 47.7082 40.1593 44.9134 42.8088C 41.3273 46.2669 37.163 49.0514 32.6149 51.0325C 31.2341 51.569 29.7298 51.6903 28.2826 51.3819C 24.9125 50.6892 21.8702 48.8687 19.6444 46.213C 18.9644 45.4203 18.3297 44.5888 17.7435 43.7226C 17.7435 43.7226 18.2563 43.3015 19.4676 42.4505Z"/>
<path id="path2_fill" d="M 42.8684 0.116165C 42.3964 0.0533429 41.9209 0.0204321 41.4449 0.0176243C 39.3867 -0.0679587 37.3275 0.158498 35.3354 0.689496C 33.1253 1.32604 31.0106 2.26326 29.0491 3.47553C 28.0021 4.07542 26.8379 4.43526 25.6387 4.52968C 24.4395 4.6241 23.2345 4.45079 22.1086 4.02198C 20.8 3.52032 19.4561 3.12615 18.1034 2.76782C 17.8594 2.68207 17.5999 2.65149 17.343 2.67824C 17.2281 4.71177 17.1573 6.53926 16.9982 8.36675C 16.6858 11.9501 16.3439 15.5573 15.9726 19.1884C 15.848 20.9662 15.5969 22.7326 15.221 24.4738C 14.8823 26.279 13.973 27.9235 12.6305 29.159C 11.8387 29.7107 10.9442 30.0933 10.0017 30.2832C 9.05914 30.4731 8.08828 30.4664 7.14837 30.2636C 6.20846 30.0607 5.31921 29.6659 4.53489 29.1032C 3.75057 28.5406 3.08764 27.8219 2.58655 26.991C 1.64935 25.2531 2.58655 21.9834 4.49631 21.4907C 5.66201 21.1113 6.91524 21.1084 8.08262 21.4824C 9.25001 21.8563 10.2738 22.5886 11.0125 23.5779C 11.4015 24.0975 11.6844 24.6081 12.0646 25.0561C 12.6787 24.8617 13.2713 24.6035 13.8329 24.2856C 12.8338 21.204 9.35913 18.9107 6.05241 18.9107C 3.34692 18.9555 0.296607 21.0875 0.0490454 24.0886C 0.0490454 24.1871 0.0490454 24.2946 0.0490454 24.3931C -0.03292 25.0822 -0.012056 25.7798 0.110936 26.4625C 0.206652 26.8888 0.355188 27.3012 0.55301 27.6898C 1.08887 28.7568 1.83677 29.7 2.74971 30.46C 3.66265 31.22 4.72088 31.7805 5.8579 32.1062C 10.4643 33.656 15.9018 31.6135 17.2104 25.9071C 17.9715 21.9797 18.4414 18 18.6162 14.0015C 18.7842 11.959 18.9433 10.8751 19.1467 8.62654C 19.2351 7.62322 19.2439 6.79009 19.4119 5.36573C 20.0839 5.53593 21.6046 6.26156 22.4003 6.47655C 23.0281 6.61989 23.6823 6.81697 24.3189 6.90655C 26.5079 7.10322 28.7003 6.56834 30.561 5.38364C 32.8375 4.00026 35.3615 3.0869 37.9879 2.69615L 42.497 2.4722L 42.8684 0.116165Z"/>
<path id="path3_fill" d="M 7.32422e-06 0.57L 7.32422e-06 -1.52588e-07L 3.56 -1.52588e-07L 3.56 0.57L 2.18 0.57L 2.18 5.4L 1.47001 5.4L 1.47001 0.57L 7.32422e-06 0.57Z"/>
<path id="path4_stroke_2x" d="M 7.32422e-06 0.57L -0.499993 0.57L -0.499993 1.07L 7.32422e-06 1.07L 7.32422e-06 0.57ZM 7.32422e-06 -1.52588e-07L 7.32422e-06 -0.5L -0.499993 -0.5L -0.499993 -1.52588e-07L 7.32422e-06 -1.52588e-07ZM 3.56 -1.52588e-07L 4.06 -1.52588e-07L 4.06 -0.5L 3.56 -0.5L 3.56 -1.52588e-07ZM 3.56 0.57L 3.56 1.07L 4.06 1.07L 4.06 0.57L 3.56 0.57ZM 2.18 0.57L 2.18 0.0699995L 1.68 0.0699995L 1.68 0.57L 2.18 0.57ZM 2.18 5.4L 2.18 5.9L 2.68 5.9L 2.68 5.4L 2.18 5.4ZM 1.47001 5.4L 0.970008 5.4L 0.970008 5.9L 1.47001 5.9L 1.47001 5.4ZM 1.47001 0.57L 1.97001 0.57L 1.97001 0.0699995L 1.47001 0.0699995L 1.47001 0.57ZM 0.500007 0.57L 0.500007 -1.52588e-07L -0.499993 -1.52588e-07L -0.499993 0.57L 0.500007 0.57ZM 7.32422e-06 0.5L 3.56 0.5L 3.56 -0.5L 7.32422e-06 -0.5L 7.32422e-06 0.5ZM 3.06 -1.52588e-07L 3.06 0.57L 4.06 0.57L 4.06 -1.52588e-07L 3.06 -1.52588e-07ZM 3.56 0.0699995L 2.18 0.0699995L 2.18 1.07L 3.56 1.07L 3.56 0.0699995ZM 1.68 0.57L 1.68 5.4L 2.68 5.4L 2.68 0.57L 1.68 0.57ZM 2.18 4.9L 1.47001 4.9L 1.47001 5.9L 2.18 5.9L 2.18 4.9ZM 1.97001 5.4L 1.97001 0.57L 0.970008 0.57L 0.970008 5.4L 1.97001 5.4ZM 1.47001 0.0699995L 7.32422e-06 0.0699995L 7.32422e-06 1.07L 1.47001 1.07L 1.47001 0.0699995Z"/>
<path id="path5_fill" d="M 5.52001 -1.52588e-07L 5.52001 5.4L 4.80001 5.4L 4.80001 1.47L 2.99999 5.4L 2.54 5.4L 0.7 1.47L 0.7 5.4L -1.2207e-05 5.4L -1.2207e-05 -1.52588e-07L 0.7 -1.52588e-07L 2.7 4.42L 4.7 -1.52588e-07L 5.52001 -1.52588e-07Z"/>
<path id="path6_stroke_2x" d="M 5.52001 -1.52588e-07L 6.02001 -1.52588e-07L 6.02001 -0.5L 5.52001 -0.5L 5.52001 -1.52588e-07ZM 5.52001 5.4L 5.52001 5.9L 6.02001 5.9L 6.02001 5.4L 5.52001 5.4ZM 4.80001 5.4L 4.30001 5.4L 4.30001 5.9L 4.80001 5.9L 4.80001 5.4ZM 4.80001 1.47L 5.30001 1.47L 4.34542 1.26179L 4.80001 1.47ZM 2.99999 5.4L 2.99999 5.9L 3.32093 5.9L 3.45457 5.60821L 2.99999 5.4ZM 2.54 5.4L 2.08717 5.61201L 2.222 5.9L 2.54 5.9L 2.54 5.4ZM 0.7 1.47L 1.15283 1.25799L 0.2 1.47L 0.7 1.47ZM 0.7 5.4L 0.7 5.9L 1.2 5.9L 1.2 5.4L 0.7 5.4ZM -1.2207e-05 5.4L -0.500012 5.4L -0.500012 5.9L -1.2207e-05 5.9L -1.2207e-05 5.4ZM -1.2207e-05 -1.52588e-07L -1.2207e-05 -0.5L -0.500012 -0.5L -0.500012 -1.52588e-07L -1.2207e-05 -1.52588e-07ZM 0.7 -1.52588e-07L 1.15554 -0.206125L 1.02256 -0.5L 0.7 -0.5L 0.7 -1.52588e-07ZM 2.7 4.42L 2.24446 4.62612L 2.7 5.63286L 3.15554 4.62612L 2.7 4.42ZM 4.7 -1.52588e-07L 4.7 -0.5L 4.37744 -0.5L 4.24446 -0.206125L 4.7 -1.52588e-07ZM 5.02001 -1.52588e-07L 5.02001 5.4L 6.02001 5.4L 6.02001 -1.52588e-07L 5.02001 -1.52588e-07ZM 5.52001 4.9L 4.80001 4.9L 4.80001 5.9L 5.52001 5.9L 5.52001 4.9ZM 5.30001 5.4L 5.30001 1.47L 4.30001 1.47L 4.30001 5.4L 5.30001 5.4ZM 4.34542 1.26179L 2.5454 5.19179L 3.45457 5.60821L 5.25459 1.67821L 4.34542 1.26179ZM 2.99999 4.9L 2.54 4.9L 2.54 5.9L 2.99999 5.9L 2.99999 4.9ZM 2.99282 5.18799L 1.15283 1.25799L 0.247174 1.68201L 2.08717 5.61201L 2.99282 5.18799ZM 0.2 1.47L 0.2 5.4L 1.2 5.4L 1.2 1.47L 0.2 1.47ZM 0.7 4.9L -1.2207e-05 4.9L -1.2207e-05 5.9L 0.7 5.9L 0.7 4.9ZM 0.499988 5.4L 0.499988 -1.52588e-07L -0.500012 -1.52588e-07L -0.500012 5.4L 0.499988 5.4ZM -1.2207e-05 0.5L 0.7 0.5L 0.7 -0.5L -1.2207e-05 -0.5L -1.2207e-05 0.5ZM 0.244464 0.206125L 2.24446 4.62612L 3.15554 4.21388L 1.15554 -0.206125L 0.244464 0.206125ZM 3.15554 4.62612L 5.15554 0.206124L 4.24446 -0.206125L 2.24446 4.21388L 3.15554 4.62612ZM 4.7 0.5L 5.52001 0.5L 5.52001 -0.5L 4.7 -0.5L 4.7 0.5Z"/>
<path id="path7_fill" d="M 19.59 28.85L 19.59 15.31L 2.72 15.31L 2.72 28.85L -2.74658e-06 28.85L -2.74658e-06 -2.28882e-07L 2.72 -2.28882e-07L 2.72 12.84L 19.59 12.84L 19.59 -2.28882e-07L 22.37 -2.28882e-07L 22.37 28.85L 19.59 28.85Z"/>
<path id="path8_stroke_2x" d="M 19.59 28.85L 19.09 28.85L 19.09 29.35L 19.59 29.35L 19.59 28.85ZM 19.59 15.31L 20.09 15.31L 20.09 14.81L 19.59 14.81L 19.59 15.31ZM 2.72 15.31L 2.72 14.81L 2.22 14.81L 2.22 15.31L 2.72 15.31ZM 2.72 28.85L 2.72 29.35L 3.22 29.35L 3.22 28.85L 2.72 28.85ZM -2.74658e-06 28.85L -0.500003 28.85L -0.500003 29.35L -2.74658e-06 29.35L -2.74658e-06 28.85ZM -2.74658e-06 -2.28882e-07L -2.74658e-06 -0.5L -0.500003 -0.5L -0.500003 -2.28882e-07L -2.74658e-06 -2.28882e-07ZM 2.72 -2.28882e-07L 3.22 -2.28882e-07L 3.22 -0.5L 2.72 -0.5L 2.72 -2.28882e-07ZM 2.72 12.84L 2.22 12.84L 2.22 13.34L 2.72 13.34L 2.72 12.84ZM 19.59 12.84L 19.59 13.34L 20.09 13.34L 20.09 12.84L 19.59 12.84ZM 19.59 -2.28882e-07L 19.59 -0.5L 19.09 -0.5L 19.09 -2.28882e-07L 19.59 -2.28882e-07ZM 22.37 -2.28882e-07L 22.87 -2.28882e-07L 22.87 -0.5L 22.37 -0.5L 22.37 -2.28882e-07ZM 22.37 28.85L 22.37 29.35L 22.87 29.35L 22.87 28.85L 22.37 28.85ZM 20.09 28.85L 20.09 15.31L 19.09 15.31L 19.09 28.85L 20.09 28.85ZM 19.59 14.81L 2.72 14.81L 2.72 15.81L 19.59 15.81L 19.59 14.81ZM 2.22 15.31L 2.22 28.85L 3.22 28.85L 3.22 15.31L 2.22 15.31ZM 2.72 28.35L -2.74658e-06 28.35L -2.74658e-06 29.35L 2.72 29.35L 2.72 28.35ZM 0.499997 28.85L 0.499997 -2.28882e-07L -0.500003 -2.28882e-07L -0.500003 28.85L 0.499997 28.85ZM -2.74658e-06 0.5L 2.72 0.5L 2.72 -0.5L -2.74658e-06 -0.5L -2.74658e-06 0.5ZM 2.22 -2.28882e-07L 2.22 12.84L 3.22 12.84L 3.22 -2.28882e-07L 2.22 -2.28882e-07ZM 2.72 13.34L 19.59 13.34L 19.59 12.34L 2.72 12.34L 2.72 13.34ZM 20.09 12.84L 20.09 -2.28882e-07L 19.09 -2.28882e-07L 19.09 12.84L 20.09 12.84ZM 19.59 0.5L 22.37 0.5L 22.37 -0.5L 19.59 -0.5L 19.59 0.5ZM 21.87 -2.28882e-07L 21.87 28.85L 22.87 28.85L 22.87 -2.28882e-07L 21.87 -2.28882e-07ZM 22.37 28.35L 19.59 28.35L 19.59 29.35L 22.37 29.35L 22.37 28.35Z"/>
<path id="path9_fill" d="M 16.79 20.79L 14.29 20.79L 14.29 16.93L 14.23 16.93C 13.6391 18.2432 12.6648 19.3471 11.4352 20.0966C 10.2056 20.8462 8.77804 21.2064 7.34 21.13C 2.82 21.13 -2.74658e-06 18.19 -2.74658e-06 13.51L -2.74658e-06 -7.62939e-07L 2.66 -7.62939e-07L 2.66 13.05C 2.66 16.73 4.66 18.77 8.09 18.77C 11.71 18.77 14.15 16.23 14.15 12.33L 14.15 -7.62939e-07L 16.79 -7.62939e-07L 16.79 20.79Z"/>
<path id="path10_stroke_2x" d="M 16.79 20.79L 16.79 21.29L 17.29 21.29L 17.29 20.79L 16.79 20.79ZM 14.29 20.79L 13.79 20.79L 13.79 21.29L 14.29 21.29L 14.29 20.79ZM 14.29 16.93L 14.79 16.93L 14.79 16.43L 14.29 16.43L 14.29 16.93ZM 14.23 16.93L 14.23 16.43L 13.9067 16.43L 13.774 16.7248L 14.23 16.93ZM 7.34 21.13L 7.36653 20.6307L 7.35328 20.63L 7.34 20.63L 7.34 21.13ZM -2.74658e-06 -7.62939e-07L -2.74658e-06 -0.500001L -0.500003 -0.500001L -0.500003 -7.62939e-07L -2.74658e-06 -7.62939e-07ZM 2.66 -7.62939e-07L 3.16 -7.62939e-07L 3.16 -0.500001L 2.66 -0.500001L 2.66 -7.62939e-07ZM 14.15 -7.62939e-07L 14.15 -0.500001L 13.65 -0.500001L 13.65 -7.62939e-07L 14.15 -7.62939e-07ZM 16.79 -7.62939e-07L 17.29 -7.62939e-07L 17.29 -0.500001L 16.79 -0.500001L 16.79 -7.62939e-07ZM 16.79 20.29L 14.29 20.29L 14.29 21.29L 16.79 21.29L 16.79 20.29ZM 14.79 20.79L 14.79 16.93L 13.79 16.93L 13.79 20.79L 14.79 20.79ZM 14.29 16.43L 14.23 16.43L 14.23 17.43L 14.29 17.43L 14.29 16.43ZM 13.774 16.7248C 13.2245 17.9461 12.3185 18.9726 11.175 19.6697L 11.6954 20.5236C 13.0112 19.7215 14.0536 18.5404 14.686 17.1352L 13.774 16.7248ZM 11.175 19.6697C 10.0314 20.3668 8.70387 20.7018 7.36653 20.6307L 7.31347 21.6293C 8.85222 21.7111 10.3797 21.3256 11.6954 20.5236L 11.175 19.6697ZM 7.34 20.63C 5.19139 20.63 3.49527 19.934 2.33531 18.7283C 1.17324 17.5205 0.499997 15.7498 0.499997 13.51L -0.500003 13.51C -0.500003 15.9502 0.23676 17.9895 1.61469 19.4217C 2.99473 20.856 4.96862 21.63 7.34 21.63L 7.34 20.63ZM 0.499997 13.51L 0.499997 -7.62939e-07L -0.500003 -7.62939e-07L -0.500003 13.51L 0.499997 13.51ZM -2.74658e-06 0.499999L 2.66 0.499999L 2.66 -0.500001L -2.74658e-06 -0.500001L -2.74658e-06 0.499999ZM 2.16 -7.62939e-07L 2.16 13.05L 3.16 13.05L 3.16 -7.62939e-07L 2.16 -7.62939e-07ZM 2.16 13.05C 2.16 14.9775 2.68475 16.5466 3.7276 17.6358C 4.77336 18.728 6.27535 19.27 8.09 19.27L 8.09 18.27C 6.47465 18.27 5.26164 17.792 4.4499 16.9442C 3.63525 16.0934 3.16 14.8025 3.16 13.05L 2.16 13.05ZM 8.09 19.27C 10.0215 19.27 11.6733 18.5894 12.8406 17.3562C 14.0057 16.1253 14.65 14.3848 14.65 12.33L 13.65 12.33C 13.65 14.1752 13.0743 15.6547 12.1144 16.6688C 11.1567 17.6806 9.77849 18.27 8.09 18.27L 8.09 19.27ZM 14.65 12.33L 14.65 -7.62939e-07L 13.65 -7.62939e-07L 13.65 12.33L 14.65 12.33ZM 14.15 0.499999L 16.79 0.499999L 16.79 -0.500001L 14.15 -0.500001L 14.15 0.499999ZM 16.29 -7.62939e-07L 16.29 20.79L 17.29 20.79L 17.29 -7.62939e-07L 16.29 -7.62939e-07Z"/>
<path id="path11_fill" d="M -6.71387e-06 0.344098L 2.49999 0.344098L 2.49999 4.1841L 2.56001 4.1841C 2.99369 2.93308 3.81526 1.85309 4.90519 1.10129C 5.99512 0.349496 7.29652 -0.0348814 8.62 0.00409827C 9.96669 -0.0456936 11.2909 0.359318 12.3794 1.15388C 13.4678 1.94844 14.2571 3.08629 14.62 4.3841L 14.71 4.3841C 15.2187 3.06694 16.122 1.93917 17.2963 1.15512C 18.4706 0.371069 19.8585 -0.0309448 21.27 0.00409827C 25.33 0.00409827 27.98 2.7241 27.98 6.9241L 27.98 21.1341L 25.35 21.1341L 25.35 7.5241C 25.35 4.3041 23.55 2.3641 20.53 2.3641C 17.51 2.3641 15.33 4.7241 15.33 8.0341L 15.33 21.1341L 12.67 21.1341L 12.67 7.2741C 12.7202 6.63017 12.6331 5.98292 12.4143 5.37521C 12.1956 4.7675 11.8502 4.21318 11.4012 3.74898C 10.9521 3.28477 10.4095 2.92126 9.80938 2.68251C 9.20924 2.44377 8.56524 2.33523 7.92001 2.3641C 4.86001 2.3641 2.66 4.8241 2.66 8.3641L 2.66 21.1341L 0.0199976 21.1341L -6.71387e-06 0.344098Z"/>
<path id="path12_stroke_2x" d="M -6.71387e-06 0.344098L -6.71387e-06 -0.155902L -0.500488 -0.155902L -0.500006 0.34458L -6.71387e-06 0.344098ZM 2.49999 0.344098L 2.99999 0.344098L 2.99999 -0.155902L 2.49999 -0.155902L 2.49999 0.344098ZM 2.49999 4.1841L 1.99999 4.1841L 1.99999 4.6841L 2.49999 4.6841L 2.49999 4.1841ZM 2.56001 4.1841L 2.56001 4.6841L 2.91587 4.6841L 3.03242 4.34787L 2.56001 4.1841ZM 8.62 0.00409827L 8.60528 0.503882L 8.62188 0.50437L 8.63848 0.503757L 8.62 0.00409827ZM 14.62 4.3841L 14.1385 4.51876L 14.2406 4.8841L 14.62 4.8841L 14.62 4.3841ZM 14.71 4.3841L 14.71 4.8841L 15.0529 4.8841L 15.1764 4.56424L 14.71 4.3841ZM 21.27 0.00409827L 21.2576 0.504098L 21.27 0.504098L 21.27 0.00409827ZM 27.98 21.1341L 27.98 21.6341L 28.48 21.6341L 28.48 21.1341L 27.98 21.1341ZM 25.35 21.1341L 24.85 21.1341L 24.85 21.6341L 25.35 21.6341L 25.35 21.1341ZM 15.33 21.1341L 15.33 21.6341L 15.83 21.6341L 15.83 21.1341L 15.33 21.1341ZM 12.67 21.1341L 12.17 21.1341L 12.17 21.6341L 12.67 21.6341L 12.67 21.1341ZM 12.67 7.2741L 12.1715 7.23522L 12.17 7.25463L 12.17 7.2741L 12.67 7.2741ZM 7.92001 2.3641L 7.92001 2.8641L 7.93119 2.8641L 7.94235 2.8636L 7.92001 2.3641ZM 2.66 21.1341L 2.66 21.6341L 3.16 21.6341L 3.16 21.1341L 2.66 21.1341ZM 0.0199976 21.1341L -0.480002 21.1346L -0.479522 21.6341L 0.0199976 21.6341L 0.0199976 21.1341ZM -6.71387e-06 0.844098L 2.49999 0.844098L 2.49999 -0.155902L -6.71387e-06 -0.155902L -6.71387e-06 0.844098ZM 1.99999 0.344098L 1.99999 4.1841L 2.99999 4.1841L 2.99999 0.344098L 1.99999 0.344098ZM 2.49999 4.6841L 2.56001 4.6841L 2.56001 3.6841L 2.49999 3.6841L 2.49999 4.6841ZM 3.03242 4.34787C 3.43125 3.19741 4.18678 2.20424 5.18909 1.51288L 4.62129 0.689708C 3.44375 1.50194 2.55613 2.66874 2.08759 4.02033L 3.03242 4.34787ZM 5.18909 1.51288C 6.1914 0.821514 7.38819 0.468035 8.60528 0.503882L 8.63472 -0.495685C 7.20485 -0.537798 5.79883 -0.122522 4.62129 0.689708L 5.18909 1.51288ZM 8.63848 0.503757C 9.87294 0.458114 11.0868 0.829375 12.0846 1.55772L 12.6742 0.750037C 11.495 -0.110738 10.0604 -0.549502 8.60153 -0.49556L 8.63848 0.503757ZM 12.0846 1.55772C 13.0823 2.28607 13.8058 3.3291 14.1385 4.51876L 15.1015 4.24944C 14.7084 2.84348 13.8533 1.61081 12.6742 0.750037L 12.0846 1.55772ZM 14.62 4.8841L 14.71 4.8841L 14.71 3.8841L 14.62 3.8841L 14.62 4.8841ZM 15.1764 4.56424C 15.648 3.34322 16.4854 2.29777 17.5739 1.57095L 17.0186 0.739288C 15.7586 1.58057 14.7894 2.79066 14.2436 4.20396L 15.1764 4.56424ZM 17.5739 1.57095C 18.6625 0.844129 19.9491 0.471459 21.2576 0.503944L 21.2824 -0.495748C 19.7678 -0.533349 18.2786 -0.101991 17.0186 0.739288L 17.5739 1.57095ZM 21.27 0.504098C 23.1851 0.504098 24.7261 1.14299 25.7888 2.2374C 26.8528 3.33323 27.48 4.93023 27.48 6.9241L 28.48 6.9241C 28.48 4.71797 27.7822 2.85496 26.5062 1.54079C 25.2289 0.22521 23.4149 -0.495902 21.27 -0.495902L 21.27 0.504098ZM 27.48 6.9241L 27.48 21.1341L 28.48 21.1341L 28.48 6.9241L 27.48 6.9241ZM 27.98 20.6341L 25.35 20.6341L 25.35 21.6341L 27.98 21.6341L 27.98 20.6341ZM 25.85 21.1341L 25.85 7.5241L 24.85 7.5241L 24.85 21.1341L 25.85 21.1341ZM 25.85 7.5241C 25.85 5.82343 25.3737 4.39897 24.4382 3.39562C 23.4985 2.38775 22.1505 1.8641 20.53 1.8641L 20.53 2.8641C 21.9296 2.8641 22.9915 3.31045 23.7068 4.07757C 24.4263 4.84923 24.85 6.00477 24.85 7.5241L 25.85 7.5241ZM 20.53 1.8641C 17.195 1.8641 14.83 4.48853 14.83 8.0341L 15.83 8.0341C 15.83 4.95967 17.825 2.8641 20.53 2.8641L 20.53 1.8641ZM 14.83 8.0341L 14.83 21.1341L 15.83 21.1341L 15.83 8.0341L 14.83 8.0341ZM 15.33 20.6341L 12.67 20.6341L 12.67 21.6341L 15.33 21.6341L 15.33 20.6341ZM 13.17 21.1341L 13.17 7.2741L 12.17 7.2741L 12.17 21.1341L 13.17 21.1341ZM 13.1685 7.31298C 13.2242 6.59844 13.1275 5.88022 12.8848 5.20588L 11.9439 5.54455C 12.1386 6.08563 12.2162 6.66191 12.1715 7.23522L 13.1685 7.31298ZM 12.8848 5.20588C 12.6421 4.53153 12.2588 3.91643 11.7605 3.40133L 11.0418 4.09663C 11.4416 4.50994 11.7491 5.00347 11.9439 5.54455L 12.8848 5.20588ZM 11.7605 3.40133C 11.2622 2.88622 10.6601 2.48285 9.9942 2.21792L 9.62456 3.1471C 10.1589 3.35967 10.642 3.68332 11.0418 4.09663L 11.7605 3.40133ZM 9.9942 2.21792C 9.32826 1.953 8.61365 1.83257 7.89766 1.8646L 7.94235 2.8636C 8.51684 2.8379 9.09023 2.93453 9.62456 3.1471L 9.9942 2.21792ZM 7.92001 1.8641C 4.52661 1.8641 2.16 4.60891 2.16 8.3641L 3.16 8.3641C 3.16 5.03928 5.1934 2.8641 7.92001 2.8641L 7.92001 1.8641ZM 2.16 8.3641L 2.16 21.1341L 3.16 21.1341L 3.16 8.3641L 2.16 8.3641ZM 2.66 20.6341L 0.0199976 20.6341L 0.0199976 21.6341L 2.66 21.6341L 2.66 20.6341ZM 0.519997 21.1336L 0.499993 0.343617L -0.500006 0.34458L -0.480002 21.1346L 0.519997 21.1336Z"/>
<path id="path13_fill" d="M 0 0.344098L 2.5 0.344098L 2.5 4.1841L 2.56 4.1841C 2.99368 2.93308 3.81527 1.85309 4.9052 1.10129C 5.99512 0.349496 7.29651 -0.0348814 8.62 0.00409827C 9.96668 -0.0456936 11.2909 0.359318 12.3794 1.15388C 13.4678 1.94844 14.2571 3.08629 14.62 4.3841L 14.68 4.3841C 15.1868 3.06361 16.091 1.93302 17.2679 1.14845C 18.4448 0.363884 19.8362 -0.0359719 21.25 0.00409827C 25.31 0.00409827 27.97 2.7241 27.97 6.9241L 27.97 21.1341L 25.33 21.1341L 25.33 7.5241C 25.33 4.3041 23.53 2.3641 20.51 2.3641C 17.49 2.3641 15.31 4.7241 15.31 8.0341L 15.31 21.1341L 12.66 21.1341L 12.66 7.2741C 12.7087 6.62966 12.6202 5.98222 12.4003 5.37451C 12.1804 4.76679 11.8341 4.21264 11.3842 3.74862C 10.9344 3.2846 10.3912 2.92127 9.79062 2.68261C 9.19002 2.44395 8.54563 2.33539 7.89999 2.3641C 4.83999 2.3641 2.64 4.8241 2.64 8.3641L 2.64 21.1341L 0 21.1341L 0 0.344098Z"/>
<path id="path14_stroke_2x" d="M 0 0.344098L 0 -0.155902L -0.5 -0.155902L -0.5 0.344098L 0 0.344098ZM 2.5 0.344098L 3 0.344098L 3 -0.155902L 2.5 -0.155902L 2.5 0.344098ZM 2.5 4.1841L 2 4.1841L 2 4.6841L 2.5 4.6841L 2.5 4.1841ZM 2.56 4.1841L 2.56 4.6841L 2.91586 4.6841L 3.03242 4.34787L 2.56 4.1841ZM 8.62 0.00409827L 8.60528 0.503882L 8.62187 0.50437L 8.63847 0.503757L 8.62 0.00409827ZM 14.62 4.3841L 14.1385 4.51876L 14.2406 4.8841L 14.62 4.8841L 14.62 4.3841ZM 14.68 4.3841L 14.68 4.8841L 15.0237 4.8841L 15.1468 4.56325L 14.68 4.3841ZM 21.25 0.00409827L 21.2358 0.503898L 21.2429 0.504098L 21.25 0.504098L 21.25 0.00409827ZM 27.97 21.1341L 27.97 21.6341L 28.47 21.6341L 28.47 21.1341L 27.97 21.1341ZM 25.33 21.1341L 24.83 21.1341L 24.83 21.6341L 25.33 21.6341L 25.33 21.1341ZM 15.31 21.1341L 15.31 21.6341L 15.81 21.6341L 15.81 21.1341L 15.31 21.1341ZM 12.66 21.1341L 12.16 21.1341L 12.16 21.6341L 12.66 21.6341L 12.66 21.1341ZM 12.66 7.2741L 12.1614 7.23641L 12.16 7.25523L 12.16 7.2741L 12.66 7.2741ZM 7.89999 2.3641L 7.89999 2.8641L 7.9111 2.8641L 7.9222 2.86361L 7.89999 2.3641ZM 2.64 21.1341L 2.64 21.6341L 3.14 21.6341L 3.14 21.1341L 2.64 21.1341ZM 0 21.1341L -0.5 21.1341L -0.5 21.6341L 0 21.6341L 0 21.1341ZM 0 0.844098L 2.5 0.844098L 2.5 -0.155902L 0 -0.155902L 0 0.844098ZM 2 0.344098L 2 4.1841L 3 4.1841L 3 0.344098L 2 0.344098ZM 2.5 4.6841L 2.56 4.6841L 2.56 3.6841L 2.5 3.6841L 2.5 4.6841ZM 3.03242 4.34787C 3.43124 3.19741 4.18678 2.20424 5.1891 1.51288L 4.6213 0.689708C 3.44376 1.50194 2.55613 2.66874 2.08758 4.02033L 3.03242 4.34787ZM 5.1891 1.51288C 6.19141 0.821513 7.38818 0.468035 8.60528 0.503882L 8.63471 -0.495685C 7.20484 -0.537798 5.79884 -0.122522 4.6213 0.689708L 5.1891 1.51288ZM 8.63847 0.503757C 9.87293 0.458114 11.0868 0.829376 12.0846 1.55772L 12.6742 0.750037C 11.495 -0.110739 10.0604 -0.549501 8.60152 -0.49556L 8.63847 0.503757ZM 12.0846 1.55772C 13.0823 2.28607 13.8058 3.3291 14.1385 4.51876L 15.1015 4.24944C 14.7083 2.84348 13.8533 1.61081 12.6742 0.750037L 12.0846 1.55772ZM 14.62 4.8841L 14.68 4.8841L 14.68 3.8841L 14.62 3.8841L 14.62 4.8841ZM 15.1468 4.56325C 15.6165 3.33943 16.4545 2.29161 17.5452 1.56448L 16.9905 0.732429C 15.7275 1.57443 14.7571 2.78778 14.2132 4.20494L 15.1468 4.56325ZM 17.5452 1.56448C 18.636 0.837345 19.9255 0.466761 21.2358 0.503898L 21.2642 -0.495701C 19.7468 -0.538705 18.2536 -0.109577 16.9905 0.732429L 17.5452 1.56448ZM 21.25 0.504098C 23.1651 0.504098 24.7089 1.14305 25.7741 2.23779C 26.8406 3.3338 27.47 4.93076 27.47 6.9241L 28.47 6.9241C 28.47 4.71744 27.7694 2.8544 26.4909 1.54041C 25.2111 0.225149 23.3949 -0.495902 21.25 -0.495902L 21.25 0.504098ZM 27.47 6.9241L 27.47 21.1341L 28.47 21.1341L 28.47 6.9241L 27.47 6.9241ZM 27.97 20.6341L 25.33 20.6341L 25.33 21.6341L 27.97 21.6341L 27.97 20.6341ZM 25.83 21.1341L 25.83 7.5241L 24.83 7.5241L 24.83 21.1341L 25.83 21.1341ZM 25.83 7.5241C 25.83 5.82343 25.3537 4.39897 24.4182 3.39562C 23.4785 2.38775 22.1304 1.8641 20.51 1.8641L 20.51 2.8641C 21.9095 2.8641 22.9715 3.31045 23.6868 4.07757C 24.4063 4.84923 24.83 6.00477 24.83 7.5241L 25.83 7.5241ZM 20.51 1.8641C 17.175 1.8641 14.81 4.48853 14.81 8.0341L 15.81 8.0341C 15.81 4.95967 17.805 2.8641 20.51 2.8641L 20.51 1.8641ZM 14.81 8.0341L 14.81 21.1341L 15.81 21.1341L 15.81 8.0341L 14.81 8.0341ZM 15.31 20.6341L 12.66 20.6341L 12.66 21.6341L 15.31 21.6341L 15.31 20.6341ZM 13.16 21.1341L 13.16 7.2741L 12.16 7.2741L 12.16 21.1341L 13.16 21.1341ZM 13.1586 7.31179C 13.2126 6.59684 13.1144 5.87856 12.8704 5.20437L 11.9301 5.54465C 12.126 6.08587 12.2048 6.66248 12.1614 7.23641L 13.1586 7.31179ZM 12.8704 5.20437C 12.6265 4.53017 12.2423 3.91538 11.7432 3.40059L 11.0252 4.09665C 11.4258 4.5099 11.7343 5.00342 11.9301 5.54465L 12.8704 5.20437ZM 11.7432 3.40059C 11.2441 2.8858 10.6416 2.48272 9.97526 2.21795L 9.60598 3.14727C 10.1409 3.35982 10.6246 3.6834 11.0252 4.09665L 11.7432 3.40059ZM 9.97526 2.21795C 9.30895 1.95318 8.59406 1.83274 7.87778 1.86459L 7.9222 2.86361C 8.4972 2.83804 9.07109 2.93472 9.60598 3.14727L 9.97526 2.21795ZM 7.89999 1.8641C 4.5066 1.8641 2.14 4.60892 2.14 8.3641L 3.14 8.3641C 3.14 5.03928 5.17339 2.8641 7.89999 2.8641L 7.89999 1.8641ZM 2.14 8.3641L 2.14 21.1341L 3.14 21.1341L 3.14 8.3641L 2.14 8.3641ZM 2.64 20.6341L 0 20.6341L 0 21.6341L 2.64 21.6341L 2.64 20.6341ZM 0.5 21.1341L 0.5 0.344098L -0.5 0.344098L -0.5 21.1341L 0.5 21.1341Z"/>
<path id="path15_fill" d="M 4.27246e-06 1.87C 4.27246e-06 1.37405 0.19701 0.898404 0.547703 0.547711C 0.898396 0.197018 1.37404 9.15527e-07 1.87 9.15527e-07C 2.36595 9.15527e-07 2.8416 0.197018 3.1923 0.547711C 3.54299 0.898404 3.73999 1.37405 3.73999 1.87C 3.73999 2.36595 3.54299 2.8416 3.1923 3.19229C 2.8416 3.54298 2.36595 3.74 1.87 3.74C 1.37404 3.74 0.898396 3.54298 0.547703 3.19229C 0.19701 2.8416 4.27246e-06 2.36595 4.27246e-06 1.87L 4.27246e-06 1.87Z"/>
<path id="path16_stroke_2x" d="M 0.500004 1.87C 0.500004 1.50665 0.644337 1.15818 0.901257 0.901265L 0.19415 0.194158C -0.250317 0.638624 -0.499996 1.24144 -0.499996 1.87L 0.500004 1.87ZM 0.901257 0.901265C 1.15818 0.644341 1.50665 0.500001 1.87 0.500001L 1.87 -0.499999C 1.24144 -0.499999 0.638612 -0.250305 0.19415 0.194158L 0.901257 0.901265ZM 1.87 0.500001C 2.23335 0.500001 2.58182 0.644341 2.83874 0.901265L 3.54585 0.194158C 3.10139 -0.250305 2.49856 -0.499999 1.87 -0.499999L 1.87 0.500001ZM 2.83874 0.901265C 3.09566 1.15818 3.23999 1.50665 3.23999 1.87L 4.23999 1.87C 4.23999 1.24144 3.99032 0.638624 3.54585 0.194158L 2.83874 0.901265ZM 3.23999 1.87C 3.23999 2.23335 3.09566 2.58182 2.83874 2.83874L 3.54585 3.54584C 3.99032 3.10138 4.23999 2.49856 4.23999 1.87L 3.23999 1.87ZM 2.83874 2.83874C 2.58182 3.09566 2.23335 3.24 1.87 3.24L 1.87 4.24C 2.49856 4.24 3.10139 3.9903 3.54585 3.54584L 2.83874 2.83874ZM 1.87 3.24C 1.50665 3.24 1.15818 3.09566 0.901257 2.83874L 0.19415 3.54584C 0.638612 3.9903 1.24144 4.24 1.87 4.24L 1.87 3.24ZM 0.901257 2.83874C 0.644337 2.58182 0.500004 2.23335 0.500004 1.87L -0.499996 1.87C -0.499996 2.49856 -0.250317 3.10138 0.19415 3.54584L 0.901257 2.83874Z"/>
<path id="path17_fill" d="M -5.49316e-06 -2.28882e-07L 2.63999 -2.28882e-07L 2.63999 28.85L -5.49316e-06 28.85L -5.49316e-06 -2.28882e-07Z"/>
<path id="path18_stroke_2x" d="M -5.49316e-06 -2.28882e-07L -5.49316e-06 -0.5L -0.500005 -0.5L -0.500005 -2.28882e-07L -5.49316e-06 -2.28882e-07ZM 2.63999 -2.28882e-07L 3.13999 -2.28882e-07L 3.13999 -0.5L 2.63999 -0.5L 2.63999 -2.28882e-07ZM 2.63999 28.85L 2.63999 29.35L 3.13999 29.35L 3.13999 28.85L 2.63999 28.85ZM -5.49316e-06 28.85L -0.500005 28.85L -0.500005 29.35L -5.49316e-06 29.35L -5.49316e-06 28.85ZM -5.49316e-06 0.5L 2.63999 0.5L 2.63999 -0.5L -5.49316e-06 -0.5L -5.49316e-06 0.5ZM 2.13999 -2.28882e-07L 2.13999 28.85L 3.13999 28.85L 3.13999 -2.28882e-07L 2.13999 -2.28882e-07ZM 2.63999 28.35L -5.49316e-06 28.35L -5.49316e-06 29.35L 2.63999 29.35L 2.63999 28.35ZM 0.499995 28.85L 0.499995 -2.28882e-07L -0.500005 -2.28882e-07L -0.500005 28.85L 0.499995 28.85Z"/>
<path id="path19_fill" d="M 2.12 28.18L 2.12 25.93C 2.5346 26.0143 2.95694 26.0545 3.38 26.05C 5.28 26.05 6.32 25.05 7.24 22.49L 7.79999 20.93L 5.49316e-06 -7.62939e-07L 2.84 -7.62939e-07L 9.15999 18.15L 9.26 18.15L 15.59 -7.62939e-07L 18.37 -7.62939e-07L 10.16 22.05C 8.33999 26.94 6.85999 28.3 3.43999 28.3C 2.99749 28.2954 2.55608 28.2553 2.12 28.18L 2.12 28.18Z"/>
<path id="path20_stroke_2x" d="M 2.12 25.93L 2.21964 25.44L 1.62 25.3181L 1.62 25.93L 2.12 25.93ZM 3.38 26.05L 3.38 25.55L 3.37464 25.55L 3.38 26.05ZM 7.24 22.49L 7.71053 22.6591L 7.71059 22.6589L 7.24 22.49ZM 7.79999 20.93L 8.27059 21.0989L 8.33239 20.9268L 8.26852 20.7554L 7.79999 20.93ZM 5.49316e-06 -7.62939e-07L 5.49316e-06 -0.500001L -0.719922 -0.500001L -0.468517 0.174604L 5.49316e-06 -7.62939e-07ZM 2.84 -7.62939e-07L 3.31219 -0.164422L 3.19534 -0.500001L 2.84 -0.500001L 2.84 -7.62939e-07ZM 9.15999 18.15L 8.6878 18.3144L 8.80465 18.65L 9.15999 18.65L 9.15999 18.15ZM 9.26 18.15L 9.26 18.65L 9.61516 18.65L 9.73211 18.3147L 9.26 18.15ZM 15.59 -7.62939e-07L 15.59 -0.500001L 15.2348 -0.500001L 15.1179 -0.164655L 15.59 -7.62939e-07ZM 18.37 -7.62939e-07L 18.8386 0.174466L 19.0897 -0.500001L 18.37 -0.500001L 18.37 -7.62939e-07ZM 10.16 22.05L 9.69142 21.8755L 9.6914 21.8756L 10.16 22.05ZM 3.43999 28.3L 3.43477 28.8L 3.43999 28.8L 3.43999 28.3ZM 2.62 28.18L 2.62 25.93L 1.62 25.93L 1.62 28.18L 2.62 28.18ZM 2.02036 26.42C 2.4695 26.5113 2.92704 26.5549 3.38535 26.55L 3.37464 25.55C 2.98683 25.5542 2.59969 25.5173 2.21964 25.44L 2.02036 26.42ZM 3.38 26.55C 4.42979 26.55 5.29531 26.2687 6.01812 25.596C 6.71856 24.9442 7.24169 23.9637 7.71053 22.6591L 6.76946 22.3209C 6.3183 23.5763 5.86144 24.3758 5.33687 24.864C 4.83468 25.3313 4.2302 25.55 3.38 25.55L 3.38 26.55ZM 7.71059 22.6589L 8.27059 21.0989L 7.3294 20.7611L 6.7694 22.3211L 7.71059 22.6589ZM 8.26852 20.7554L 0.468528 -0.174605L -0.468517 0.174604L 7.33147 21.1046L 8.26852 20.7554ZM 5.49316e-06 0.499999L 2.84 0.499999L 2.84 -0.500001L 5.49316e-06 -0.500001L 5.49316e-06 0.499999ZM 2.36781 0.164421L 8.6878 18.3144L 9.63219 17.9856L 3.31219 -0.164422L 2.36781 0.164421ZM 9.15999 18.65L 9.26 18.65L 9.26 17.65L 9.15999 17.65L 9.15999 18.65ZM 9.73211 18.3147L 16.0621 0.164653L 15.1179 -0.164655L 8.78789 17.9853L 9.73211 18.3147ZM 15.59 0.499999L 18.37 0.499999L 18.37 -0.500001L 15.59 -0.500001L 15.59 0.499999ZM 17.9014 -0.174468L 9.69142 21.8755L 10.6286 22.2245L 18.8386 0.174466L 17.9014 -0.174468ZM 9.6914 21.8756C 8.78411 24.3133 7.99204 25.7772 7.05987 26.6423C 6.16046 27.477 5.07776 27.8 3.43999 27.8L 3.43999 28.8C 5.22223 28.8 6.58953 28.443 7.74012 27.3752C 8.85795 26.3378 9.71588 24.6767 10.6286 22.2244L 9.6914 21.8756ZM 3.44521 27.8C 3.02946 27.7957 2.61474 27.758 2.20503 27.6873L 2.03498 28.6727C 2.49742 28.7525 2.96552 28.7951 3.43477 28.8L 3.44521 27.8Z"/>
</defs>
</svg>
