<svg width="22" height="22" viewBox="0 0 22 22" fill="none" xmlns="http://www.w3.org/2000/svg">
<path fill-rule="evenodd" clip-rule="evenodd" d="M10.9999 1.98193C13.9371 1.98193 14.285 1.99311 15.4449 2.04603C16.5173 2.09498 17.0998 2.27418 17.4874 2.42478C18.0008 2.62433 18.3673 2.86274 18.7522 3.24764C19.1371 3.63254 19.3755 3.99902 19.575 4.51243C19.7257 4.90008 19.9049 5.48252 19.9538 6.55497C20.0068 7.71492 20.0179 8.06279 20.0179 10.9999C20.0179 13.9371 20.0068 14.285 19.9538 15.4449C19.9049 16.5173 19.7257 17.0998 19.575 17.4874C19.3755 18.0008 19.1371 18.3673 18.7522 18.7522C18.3673 19.1371 18.0008 19.3755 17.4874 19.575C17.0998 19.7257 16.5173 19.9049 15.4449 19.9538C14.2851 20.0068 13.9372 20.0179 10.9999 20.0179C8.06262 20.0179 7.71474 20.0068 6.55501 19.9538C5.48252 19.9049 4.90008 19.7257 4.51247 19.575C3.99902 19.3755 3.63254 19.1371 3.24764 18.7522C2.86274 18.3673 2.62433 18.0008 2.42482 17.4874C2.27418 17.0998 2.09498 16.5173 2.04603 15.4449C1.99311 14.285 1.98193 13.9371 1.98193 10.9999C1.98193 8.06279 1.99311 7.71492 2.04603 6.55501C2.09498 5.48252 2.27418 4.90008 2.42482 4.51243C2.62433 3.99902 2.86274 3.63254 3.24764 3.24764C3.63254 2.86274 3.99902 2.62433 4.51247 2.42478C4.90008 2.27418 5.48252 2.09498 6.55497 2.04603C7.71492 1.99311 8.06279 1.98193 10.9999 1.98193ZM11 0C8.01254 0 7.63798 0.0126627 6.46471 0.0661955C5.29385 0.119641 4.49426 0.305565 3.79454 0.577508C3.07119 0.85862 2.45775 1.23475 1.84623 1.84627C1.2347 2.45779 0.858576 3.07123 0.577464 3.79458C0.305521 4.49431 0.119597 5.29389 0.0661518 6.46476C0.0126191 7.63798 0 8.01258 0 11C0 13.9875 0.0126191 14.3621 0.0661518 15.5353C0.119597 16.7062 0.305521 17.5057 0.577464 18.2055C0.858576 18.9288 1.2347 19.5423 1.84623 20.1538C2.45775 20.7653 3.07119 21.1414 3.79454 21.4225C4.49426 21.6945 5.29385 21.8804 6.46471 21.9338C7.63798 21.9874 8.01254 22 11 22C13.9874 22 14.362 21.9874 15.5352 21.9338C16.7061 21.8804 17.5057 21.6945 18.2054 21.4225C18.9288 21.1414 19.5422 20.7653 20.1537 20.1538C20.7653 19.5423 21.1414 18.9288 21.4225 18.2055C21.6944 17.5057 21.8804 16.7062 21.9338 15.5353C21.9873 14.3621 22 13.9875 22 11C22 8.01258 21.9873 7.63798 21.9338 6.46476C21.8804 5.29389 21.6944 4.49431 21.4225 3.79458C21.1414 3.07123 20.7653 2.45779 20.1537 1.84627C19.5422 1.23475 18.9288 0.85862 18.2054 0.577508C17.5057 0.305565 16.7061 0.119641 15.5352 0.0661955C14.362 0.0126627 13.9874 0 11 0ZM11.0218 5.36914C7.89987 5.36914 5.36902 7.89999 5.36902 11.0219C5.36902 14.1438 7.89987 16.6747 11.0218 16.6747C14.1437 16.6747 16.6746 14.1438 16.6746 11.0219C16.6746 7.89999 14.1437 5.36914 11.0218 5.36914ZM11.0218 14.6913C8.99527 14.6913 7.35242 13.0484 7.35242 11.0219C7.35242 8.99539 8.99527 7.35254 11.0218 7.35254C13.0483 7.35254 14.6911 8.99539 14.6911 11.0219C14.6911 13.0484 13.0483 14.6913 11.0218 14.6913ZM18.1587 5.10711C18.1587 5.83035 17.5725 6.41666 16.8492 6.41666C16.126 6.41666 15.5397 5.83035 15.5397 5.10711C15.5397 4.38387 16.126 3.79761 16.8492 3.79761C17.5725 3.79761 18.1587 4.38387 18.1587 5.10711Z" fill="#AFD2EC"/>
</svg>
