<svg width="17" height="15" viewBox="0 0 17 15" fill="none" xmlns="http://www.w3.org/2000/svg">
<path fill-rule="evenodd" clip-rule="evenodd" d="M14.9974 2.37144C15.7178 1.90344 16.2706 1.16135 16.53 0.277336C15.8555 0.711758 15.1101 1.02593 14.3148 1.19601C13.6802 0.459338 12.7732 0 11.7694 0C9.84358 0 8.28297 1.69544 8.28297 3.78629C8.28297 4.08313 8.31191 4.37238 8.37178 4.64863C5.47409 4.49047 2.90468 2.98462 1.18342 0.692258C0.883078 1.25343 0.711452 1.90344 0.711452 2.59678C0.711452 3.90979 1.32711 5.06897 2.26307 5.74931C1.69132 5.72981 1.15349 5.55756 0.682515 5.27589V5.32248C0.682515 7.15766 1.8839 8.68843 3.48142 9.0351C3.18806 9.12393 2.88073 9.16835 2.56143 9.16835C2.33691 9.16835 2.11739 9.1456 1.90585 9.10118C2.34889 10.6049 3.63708 11.7012 5.16376 11.7305C3.96936 12.7466 2.46563 13.3511 0.832189 13.3511C0.550801 13.3511 0.272407 13.3349 0 13.2991C1.54364 14.3727 3.37665 15 5.34636 15C11.7624 15 15.2688 9.2301 15.2688 4.22613C15.2688 4.06146 15.2668 3.89788 15.2598 3.73646C15.9413 3.20237 16.534 2.53503 17 1.7756C16.3744 2.07677 15.7018 2.28044 14.9974 2.37144Z" fill="#AFD2EC"/>
</svg>
